<?xml version="1.0" standalone="no"?>
<!DOCTYPE svg PUBLIC "-//W3C//DTD SVG 20010904//EN"
 "http://www.w3.org/TR/2001/REC-SVG-20010904/DTD/svg10.dtd">
<svg version="1.0" xmlns="http://www.w3.org/2000/svg"
 width="1124.000000pt" height="1124.000000pt" viewBox="0 0 1124.000000 1124.000000"
 preserveAspectRatio="xMidYMid meet">
<metadata>
Created by potrace 1.11, written by Peter Selinger 2001-2013
</metadata>
<g transform="translate(0.000000,1124.000000) scale(0.100000,-0.100000)"
fill="#000000" stroke="none">
<path d="M6420 9688 c0 -6 -3 -8 -6 -5 -7 6 -35 -25 -47 -53 -4 -8 -16 -28
-26 -45 -17 -27 -62 -106 -122 -212 -12 -21 -30 -51 -40 -68 -11 -16 -22 -37
-26 -45 -3 -8 -9 -17 -12 -20 -6 -5 -33 -53 -70 -125 -9 -16 -19 -31 -23 -33
-5 -2 -8 -10 -8 -18 0 -8 -5 -14 -12 -14 -6 0 -8 -3 -5 -6 4 -4 -2 -19 -12
-33 -10 -14 -31 -51 -48 -81 -23 -44 -28 -61 -21 -85 11 -42 42 -53 153 -51
l96 1 -4 -312 c-4 -268 -7 -316 -21 -338 -20 -31 -33 -34 -186 -39 -69 -3
-135 -7 -147 -10 -13 -3 -31 -8 -42 -10 -32 -7 -125 -50 -139 -63 -7 -7 -18
-13 -23 -13 -6 0 -43 -33 -82 -73 -72 -72 -138 -182 -151 -252 -4 -16 -9 -41
-12 -55 -3 -14 -7 -182 -8 -375 -1 -317 0 -354 17 -405 51 -150 231 -211 368
-124 38 24 99 105 107 142 2 10 5 166 6 347 2 182 7 340 11 352 11 33 48 42
190 46 72 2 140 7 153 10 150 39 269 121 352 242 26 38 62 107 65 125 0 3 3
10 7 15 3 6 9 28 13 50 4 22 9 49 12 60 2 11 6 166 9 344 2 179 6 327 9 329 3
3 55 5 116 6 104 1 112 2 130 25 23 28 19 66 -13 121 -12 19 -34 60 -51 90
-16 30 -36 62 -43 71 -8 8 -14 18 -14 22 0 3 -39 73 -87 154 -48 81 -96 166
-108 188 -11 22 -32 58 -46 80 -13 22 -31 53 -39 69 -25 48 -66 86 -94 86 -14
0 -26 -5 -26 -12z"/>
<path d="M2329 6506 c-2 -2 -35 -7 -74 -11 -119 -12 -120 -12 -225 -32 -19 -3
-39 -7 -45 -8 -5 -2 -23 -5 -40 -8 -24 -5 -94 -23 -150 -41 -5 -1 -30 -8 -55
-15 -57 -17 -178 -64 -258 -101 -35 -17 -67 -30 -72 -30 -6 0 -10 -5 -10 -12
0 -6 -3 -8 -6 -5 -7 7 -137 -62 -142 -75 -2 -4 -9 -8 -14 -8 -13 0 -112 -61
-116 -72 -2 -5 -10 -8 -18 -8 -8 0 -14 -4 -14 -10 0 -5 -5 -10 -10 -10 -10 0
-22 -8 -55 -37 -7 -7 -16 -13 -20 -13 -4 0 -12 -6 -19 -12 -7 -7 -30 -26 -51
-43 -94 -74 -224 -200 -305 -295 -30 -36 -58 -67 -61 -70 -3 -3 -25 -32 -50
-65 -24 -33 -47 -61 -51 -63 -5 -2 -8 -10 -8 -18 0 -8 -4 -14 -10 -14 -5 0
-10 -7 -10 -15 0 -8 -4 -15 -10 -15 -5 0 -10 -7 -10 -15 0 -8 -4 -15 -8 -15
-5 0 -16 -15 -25 -32 -9 -18 -28 -53 -43 -78 -60 -101 -177 -354 -188 -405 -3
-13 -26 -85 -33 -105 -3 -8 -7 -19 -9 -25 -3 -10 -53 -198 -54 -202 0 -2 0 -4
-1 -5 0 -2 -2 -12 -3 -23 -3 -20 -17 -109 -22 -133 -25 -127 -25 -500 1 -682
11 -82 17 -119 25 -150 5 -19 11 -46 14 -60 34 -173 127 -425 220 -600 22 -41
44 -85 50 -97 6 -13 14 -23 19 -23 4 0 7 -5 7 -10 0 -13 120 -194 132 -198 4
-2 8 -8 8 -13 0 -6 13 -24 30 -42 16 -18 30 -35 30 -38 0 -16 232 -255 310
-318 23 -19 48 -40 54 -45 22 -20 91 -72 141 -106 28 -19 52 -36 55 -39 9 -10
64 -42 83 -48 9 -3 17 -9 17 -13 0 -4 15 -13 33 -21 17 -7 34 -16 37 -20 3 -3
48 -27 100 -51 130 -62 159 -74 205 -90 22 -7 42 -15 45 -18 5 -6 158 -53 245
-75 69 -18 188 -41 255 -50 19 -3 55 -8 80 -11 25 -3 135 -7 245 -8 207 -1
303 5 440 29 22 4 49 9 60 10 41 7 229 56 288 76 34 11 69 22 77 24 38 9 276
109 282 119 4 6 8 7 8 3 0 -7 25 6 146 74 65 36 79 44 96 60 10 9 30 22 45 30
15 8 35 21 43 29 9 8 34 29 55 45 112 86 279 251 376 370 137 169 151 182 239
214 8 3 443 7 965 9 956 3 1021 1 1079 -32 53 -30 67 -45 188 -196 64 -79 253
-270 328 -330 30 -25 57 -47 60 -51 3 -3 41 -30 85 -60 44 -29 82 -57 83 -61
2 -5 12 -8 22 -8 11 0 23 -7 28 -16 5 -8 15 -16 23 -17 8 -2 21 -7 29 -12 90
-57 458 -203 556 -221 13 -2 35 -9 50 -14 15 -6 29 -8 32 -5 3 2 10 1 16 -4 6
-4 43 -14 81 -21 39 -7 79 -14 90 -16 19 -4 54 -9 140 -21 64 -9 453 -9 530 0
39 4 95 12 125 17 30 5 71 12 90 15 19 3 39 10 44 15 5 5 14 6 21 4 11 -5 108
21 250 67 39 13 72 23 75 24 3 0 15 6 26 13 12 6 24 8 28 5 3 -3 6 -1 6 5 0 7
7 12 16 12 22 0 237 104 301 146 28 19 54 34 58 34 7 0 156 100 165 111 3 3
23 19 46 35 97 70 285 247 369 348 22 27 45 54 51 60 5 6 30 38 54 71 24 33
47 62 52 63 4 2 8 8 8 14 0 6 16 32 35 58 19 26 35 51 35 55 0 4 8 19 19 33
44 63 161 304 187 387 2 6 19 56 39 113 19 56 37 113 39 125 12 53 15 68 20
75 2 4 7 27 11 52 4 25 8 47 10 50 2 4 7 29 11 56 3 27 8 57 9 66 19 98 26
445 12 583 -14 148 -37 272 -72 408 -3 9 -7 25 -9 35 -11 45 -76 227 -108 302
-34 79 -119 244 -134 261 -8 9 -12 18 -9 21 3 3 -1 11 -10 18 -8 7 -15 19 -15
26 0 8 -4 14 -10 14 -5 0 -10 4 -10 10 0 5 -14 29 -30 52 -17 24 -41 59 -54
79 -14 20 -30 42 -38 50 -7 8 -26 31 -42 53 -82 109 -265 290 -392 386 -32 25
-61 47 -64 50 -3 3 -27 21 -55 41 -258 180 -588 326 -874 385 -14 3 -27 7 -31
9 -4 2 -29 7 -56 11 -27 3 -58 8 -69 10 -11 3 -40 7 -65 10 -25 3 -58 8 -75
12 -31 7 -6669 15 -6676 8z m6688 -1225 c10 -5 40 -19 66 -32 66 -31 142 -110
180 -188 30 -62 32 -73 32 -171 0 -98 -2 -109 -33 -172 -69 -142 -212 -235
-367 -240 -28 0 -111 14 -127 23 -10 5 -18 7 -18 4 0 -16 -145 84 -163 112 -4
6 -14 18 -21 26 -21 20 -62 107 -71 147 -18 82 -9 218 16 245 5 5 9 16 9 25 0
9 9 26 20 38 11 12 20 25 20 30 0 18 98 100 148 126 28 14 68 29 89 32 21 3
40 8 42 10 8 7 160 -5 178 -15z m-6523 -17 c59 -20 99 -54 135 -114 l26 -45 1
-403 c1 -221 3 -404 5 -407 3 -2 187 -5 409 -7 395 -3 406 -4 446 -25 108 -58
155 -183 113 -297 -23 -62 -61 -102 -124 -132 -50 -24 -50 -24 -447 -24 l-398
0 -1 -27 c0 -16 0 -185 0 -378 0 -192 -5 -373 -10 -400 -24 -126 -169 -210
-299 -171 -47 13 -60 19 -60 26 0 5 -8 11 -17 14 -22 8 -66 70 -81 115 -8 23
-12 158 -12 427 l-1 394 -392 1 c-216 0 -400 2 -410 4 -73 14 -149 85 -173
161 -36 116 11 224 126 289 33 19 56 20 440 21 l405 1 1 378 c1 207 5 395 8
417 23 143 169 228 310 182z m5636 -819 c95 -29 218 -121 235 -176 4 -10 10
-19 14 -19 4 0 16 -24 27 -52 14 -40 19 -78 19 -153 0 -91 -3 -106 -31 -165
-30 -63 -90 -133 -150 -175 -35 -25 -114 -56 -125 -49 -4 2 -11 -1 -14 -7 -4
-5 -13 -8 -21 -5 -8 3 -14 1 -14 -5 0 -6 -5 -7 -10 -4 -6 3 -36 7 -68 9 -80 4
-175 39 -219 82 -7 7 -23 21 -35 31 -38 31 -94 119 -104 164 -2 10 -7 29 -10
42 -9 31 -9 124 -1 172 20 112 119 235 229 285 35 15 74 30 88 32 37 7 162 2
190 -7z m1780 -14 c30 -12 57 -26 58 -31 2 -6 9 -10 16 -10 39 0 152 -151 173
-232 9 -32 12 -191 5 -203 -4 -5 -7 -16 -8 -23 -6 -36 -64 -130 -107 -173 -61
-61 -160 -110 -229 -113 -10 0 -18 -3 -18 -6 0 -3 -15 -4 -32 -3 -18 1 -33 2
-33 3 0 1 -13 3 -30 5 -74 10 -130 33 -190 79 -58 45 -82 74 -116 140 -37 71
-43 97 -42 201 0 73 3 88 36 155 41 84 74 123 138 166 53 36 94 55 134 61 17
3 31 6 33 8 12 11 165 -6 212 -24z m-931 -862 c123 -28 228 -113 282 -227 58
-122 47 -283 -27 -396 -71 -106 -186 -175 -300 -179 -35 -1 -64 -5 -64 -9 0
-3 -20 0 -45 8 -25 7 -45 11 -45 8 0 -14 -141 71 -176 105 -161 161 -158 432
6 585 101 95 241 135 369 105z"/>
</g>
</svg>
