<svg id="Layer_1" data-name="Layer 1" xmlns="http://www.w3.org/2000/svg" viewBox="0 0 562 408.62"><defs><style>.cls-1{fill:#f0f;}</style></defs><title>Controllerlogo</title><path class="cls-1" d="M718,431" transform="translate(-401 -244.38)"/><path class="cls-1" d="M633,468" transform="translate(-401 -244.38)"/><path d="M839,404H525a124.5,124.5,0,1,0,37.5,243.4c21.74-6.76,41.5-16.41,62.41-43.95a15,15,0,0,1,11-5.46h92.16a15,15,0,0,1,11,5.46C760,631,779.76,640.65,801.5,647.41A124.51,124.51,0,1,0,839,404ZM571,539H533.5v38.5h0a12,12,0,0,1-23.9,0h-.05V539H471v0a12,12,0,0,1,0-23.9v0h38.5V477.5a12,12,0,0,1,24,0V515H571a12,12,0,0,1,0,24Zm231,8.5A20.5,20.5,0,1,1,822.5,527,20.5,20.5,0,0,1,802,547.5Zm43.5,44A20.5,20.5,0,1,1,866,571,20.5,20.5,0,0,1,845.5,591.5Zm0-86A20.5,20.5,0,1,1,866,485,20.5,20.5,0,0,1,845.5,505.5Zm43.5,42A20.5,20.5,0,1,1,909.5,527,20.5,20.5,0,0,1,889,547.5Z" transform="translate(-401 -244.38)"/><path d="M710.75,263.47,709.91,320a4.18,4.18,0,0,1-4,4h-7.61a28.83,28.83,0,0,0-28.8,28.8V383.6h.06a12.48,12.48,0,0,0,24.9,0h0v-.69c0-.08,0-.16,0-.24s0-.17,0-.25V352.78a3.86,3.86,0,0,1,3.8-3.81h7.61a29.16,29.16,0,0,0,29-28.61l.84-56.51Z" transform="translate(-401 -244.38)"/><path d="M726.69,246.88c-1.92-3.33-5.07-3.33-7,0L698.44,283.7c-1.93,3.33-.35,6.06,3.5,6.06h42.51c3.85,0,5.43-2.73,3.5-6.06Z" transform="translate(-401 -244.38)"/></svg>